<?xml version="1.0" encoding="utf-8"?>
<!-- Generator: Adobe Illustrator 24.3.0, SVG Export Plug-In . SVG Version: 6.00 Build 0)  -->
<svg version="1.1" id="Layer_1" xmlns="http://www.w3.org/2000/svg" xmlns:xlink="http://www.w3.org/1999/xlink" x="0px" y="0px"
	 width="180px" height="42px" viewBox="0 0 180 42" style="enable-background:new 0 0 180 42;" xml:space="preserve">
<style type="text/css">
	.st0{fill:#DDDCDB;}
	.st1{fill:#EDA920;}
	.st2{fill:#FEDA47;}
	.st3{fill:#CDCCCC;}
</style>
<g>
	<path class="st0" d="M56.2,17c0,2-0.4,3.4-1.1,4.4c-0.8,0.9-2,1.4-3.7,1.4h-1.8v7.4h-3V11.2h4.8c1.7,0,3,0.5,3.7,1.4
		C55.8,13.5,56.2,15,56.2,17z M53.2,17c0-1-0.1-1.7-0.4-2.2c-0.3-0.6-0.8-0.8-1.6-0.8h-1.7V20h1.7c0.8,0,1.3-0.3,1.6-0.8
		C53,18.7,53.2,17.9,53.2,17z"/>
	<path class="st0" d="M68.1,25.1c0,0.8-0.2,1.6-0.4,2.3s-0.6,1.3-1.1,1.7c-0.4,0.4-0.9,0.7-1.4,0.9c-0.5,0.2-1.1,0.3-1.9,0.3
		c-0.9,0-1.6-0.1-2.2-0.5c-0.6-0.3-1.1-0.7-1.5-1.2c-0.3-0.4-0.6-0.8-0.8-1.3c-0.2-0.5-0.3-1-0.4-1.7c-0.1-0.6-0.1-1.4-0.2-2.2
		c0-0.8,0-1.8,0-3c0-1.1,0-2.1,0-3c0-0.8,0.1-1.6,0.2-2.2s0.2-1.2,0.4-1.7c0.2-0.5,0.4-0.9,0.8-1.3c0.4-0.5,0.9-0.8,1.5-1.2
		s1.3-0.5,2.2-0.5c0.7,0,1.3,0.1,1.9,0.3c0.5,0.2,1,0.5,1.4,0.9c0.5,0.4,0.8,1,1.1,1.7c0.2,0.7,0.4,1.5,0.4,2.3h-3
		c0-0.4-0.1-0.7-0.1-1c-0.1-0.3-0.2-0.6-0.3-0.8c-0.1-0.2-0.3-0.4-0.6-0.5c-0.2-0.1-0.5-0.2-0.9-0.2c-0.4,0-0.6,0.1-0.9,0.2
		c-0.2,0.1-0.4,0.3-0.6,0.5c-0.3,0.5-0.5,1.2-0.6,2.2c-0.1,1-0.1,2.4-0.1,4.1c0,1.8,0,3.1,0.1,4.1c0.1,1,0.3,1.7,0.6,2.2
		c0.1,0.2,0.3,0.4,0.6,0.5c0.2,0.1,0.5,0.2,0.9,0.2c0.4,0,0.6-0.1,0.9-0.2c0.2-0.1,0.4-0.3,0.6-0.5c0.1-0.3,0.3-0.5,0.3-0.8
		c0.1-0.3,0.1-0.6,0.1-1L68.1,25.1L68.1,25.1z"/>
	<path class="st1" d="M80.3,17c0,2-0.4,3.4-1.1,4.4c-0.8,0.9-2,1.4-3.7,1.4h-1.8v7.4h-3V11.2h4.8c1.7,0,3,0.5,3.7,1.4
		C79.9,13.5,80.3,15,80.3,17z M77.3,17c0-1-0.1-1.7-0.4-2.2c-0.3-0.6-0.8-0.8-1.6-0.8h-1.7V20h1.7c0.8,0,1.3-0.3,1.6-0.8
		C77.2,18.7,77.3,17.9,77.3,17z"/>
	<path class="st1" d="M89.1,30.1l-0.8-3.8H84l-0.8,3.8h-3.2l4.7-19h2.9l4.6,19H89.1z M86.2,15.8l-1.6,7.9h3.2L86.2,15.8z"/>
	<path class="st1" d="M101.1,30.1l-2.5-7.8H97v7.8h-3v-19h4.8c1.8,0,3,0.4,3.7,1.3c0.8,0.9,1.1,2.3,1.1,4.3c0,1.2-0.1,2.2-0.4,3
		s-0.9,1.5-1.8,2l2.8,8.4H101.1z M100.6,16.8c0-0.4,0-0.8-0.1-1.1c-0.1-0.4-0.1-0.7-0.3-0.9c-0.1-0.3-0.3-0.5-0.6-0.6
		c-0.3-0.1-0.6-0.2-1-0.2H97v5.8h1.8c0.4,0,0.7-0.1,1-0.2c0.2-0.1,0.4-0.4,0.6-0.6c0.1-0.3,0.2-0.6,0.3-0.9
		C100.6,17.5,100.6,17.2,100.6,16.8z"/>
	<path class="st1" d="M111,13.9v16.3h-3V13.9h-3.2v-2.7h9.3v2.7H111z"/>
	<path class="st0" d="M126,17c0,2-0.4,3.4-1.1,4.4c-0.8,0.9-2,1.4-3.7,1.4h-1.8v7.4h-3V11.2h4.8c1.7,0,3,0.5,3.7,1.4
		C125.6,13.5,126,15,126,17z M123,17c0-1-0.1-1.7-0.4-2.2c-0.3-0.6-0.8-0.8-1.6-0.8h-1.7V20h1.7c0.8,0,1.3-0.3,1.6-0.8
		C122.9,18.7,123,17.9,123,17z"/>
	<path class="st0" d="M128.6,30.1v-19h3v19H128.6z"/>
	<path class="st0" d="M144.2,25.1c0,0.8-0.2,1.6-0.4,2.3s-0.6,1.3-1.1,1.7c-0.4,0.4-0.9,0.7-1.4,0.9c-0.5,0.2-1.1,0.3-1.9,0.3
		c-0.9,0-1.6-0.1-2.2-0.5c-0.6-0.3-1.1-0.7-1.5-1.2c-0.3-0.4-0.6-0.8-0.8-1.3c-0.2-0.5-0.3-1-0.4-1.7c-0.1-0.6-0.1-1.4-0.2-2.2
		c0-0.8,0-1.8,0-3c0-1.1,0-2.1,0-3s0.1-1.6,0.2-2.2c0.1-0.6,0.2-1.2,0.4-1.7c0.2-0.5,0.4-0.9,0.8-1.3c0.4-0.5,0.9-0.8,1.5-1.2
		s1.3-0.5,2.2-0.5c0.7,0,1.3,0.1,1.9,0.3c0.5,0.2,1,0.5,1.4,0.9c0.5,0.4,0.8,1,1.1,1.7c0.2,0.7,0.4,1.5,0.4,2.3h-3
		c0-0.4-0.1-0.7-0.1-1s-0.2-0.6-0.3-0.8c-0.1-0.2-0.3-0.4-0.6-0.5c-0.2-0.1-0.5-0.2-0.9-0.2c-0.4,0-0.6,0.1-0.9,0.2
		c-0.2,0.1-0.4,0.3-0.6,0.5c-0.3,0.5-0.5,1.2-0.6,2.2c-0.1,1-0.1,2.4-0.1,4.1c0,1.8,0,3.1,0.1,4.1c0.1,1,0.3,1.7,0.6,2.2
		c0.1,0.2,0.3,0.4,0.6,0.5c0.2,0.1,0.5,0.2,0.9,0.2c0.4,0,0.6-0.1,0.9-0.2c0.2-0.1,0.4-0.3,0.6-0.5c0.1-0.3,0.3-0.5,0.3-0.8
		c0.1-0.3,0.1-0.6,0.1-1L144.2,25.1L144.2,25.1z"/>
	<path class="st0" d="M154.2,30.1l-3.1-7.8l-1.4,2.9v4.9h-3v-19h3v8.9l4.1-8.9h3L153,19l4.4,11.1C157.4,30.1,154.2,30.1,154.2,30.1z
		"/>
	<path class="st0" d="M159.2,30.1v-19h8v2.7h-5v5.4h4.3v2.7h-4.3v5.5h5v2.7H159.2z"/>
	<path class="st0" d="M176.8,30.1l-2.5-7.8h-1.7v7.8h-3v-19h4.8c1.8,0,3,0.4,3.7,1.3s1.1,2.3,1.1,4.3c0,1.2-0.1,2.2-0.4,3
		s-0.9,1.5-1.8,2l2.8,8.4H176.8z M176.4,16.8c0-0.4,0-0.8-0.1-1.1c-0.1-0.4-0.1-0.7-0.3-0.9c-0.1-0.3-0.3-0.5-0.6-0.6
		c-0.3-0.1-0.6-0.2-1-0.2h-1.8v5.8h1.8c0.4,0,0.7-0.1,1-0.2c0.2-0.1,0.4-0.4,0.6-0.6s0.2-0.6,0.3-0.9
		C176.3,17.5,176.4,17.2,176.4,16.8z"/>
	<path class="st0" d="M17.6,0.4l-12.1,7v5L0,9.2v21.6l18.7,10.8v-6.3l4.3,2.5l12.1-7V10.5L17.6,0.4z M33.9,30.1L23,36.4l-5.5-3.2
		v6.3L1.2,30.1V11.2l5.5,3.2V8.1l10.9-6.3l16.4,9.5L33.9,30.1L33.9,30.1z"/>
	<g>
		<polygon class="st2" points="15.7,13.3 10.3,16.5 17.6,20.6 23,17.5 		"/>
	</g>
	<g>
		<polygon class="st1" points="23,25.9 17.6,29.1 17.6,20.6 23,17.5 		"/>
	</g>
	<polygon class="st3" points="17.6,3.9 10.3,8.1 23.9,15.9 31.2,11.7 	"/>
	<polygon class="st3" points="24.8,17.5 32.1,13.3 32.1,29.1 24.8,33.3 	"/>
	<polygon class="st3" points="3,14.4 15.7,21.7 15.7,36.4 3,29.1 	"/>
</g>
</svg>
